{"glyphs":{"\u0000":{"ha":0,"x_min":0,"x_max":0,"o":""},"\n":{"ha":0,"x_min":0,"x_max":0,"o":""},"\r":{"ha":0,"x_min":0,"x_max":0,"o":""}," ":{"ha":1126,"x_min":0,"x_max":0,"o":""},"A":{"ha":1125,"x_min":0,"x_max":0,"o":"m 1196 432 b 2186 14 1141 285 1524 36 b 1844 1 2186 14 2049 3 b 1676 1 1792 0 1736 0 b 968 224 1245 7 971 215 b 1084 401 1007 196 1189 242 b 682 638 984 551 831 621 b 581 583 619 646 585 623 b 724 382 573 500 632 415 b 1055 373 899 320 1055 373 b 725 306 1055 373 900 254 b 1158 19 806 128 1158 19 b 650 128 1158 19 800 80 b 356 249 543 163 442 200 b 157 418 275 297 206 352 b 553 356 157 418 482 208 b 1 972 645 549 235 659 b 257 811 1 972 77 890 b 745 721 372 761 535 746 b 1585 475 1378 643 1585 475 b 1196 432 1585 475 1251 580 "},"B":{"ha":1125,"x_min":0,"x_max":0,"o":"m 931 413 b 1824 51 1283 418 1383 124 b 2186 14 1933 32 2054 18 b 157 418 2186 14 558 -115 b 553 356 157 418 482 208 b 1 972 645 549 235 659 b 738 699 1 972 203 764 b 1585 475 1371 621 1585 475 b 1334 518 1585 475 1474 515 b 931 413 1065 525 950 420 m 682 638 b 717 400 549 642 606 529 b 898 514 826 404 902 448 b 682 638 895 571 807 635 m 1044 147 b 1152 303 1238 45 1278 205 b 768 351 1038 392 815 351 b 1044 147 850 268 937 204 "},"C":{"ha":1125,"x_min":0,"x_max":0,"o":"m 1206 347 b 1638 95 1206 347 1344 186 b 2186 14 1787 48 1972 21 b 157 418 2186 14 558 -115 b 553 356 157 418 482 208 b 1 972 645 549 235 659 b 738 699 1 972 203 764 b 1585 475 1371 621 1585 475 b 1370 511 1585 475 1474 505 b 1124 377 1148 525 1124 377 b 682 638 1124 377 943 681 b 605 596 663 635 623 627 b 807 234 558 515 675 327 b 1186 126 868 191 1094 65 b 1206 347 1256 172 1206 347 "},"D":{"ha":1125,"x_min":0,"x_max":0,"o":"m 1196 432 b 2186 14 1141 285 1524 36 b 157 418 2186 14 558 -115 b 372 307 157 418 245 365 b 641 206 405 292 597 218 b 1018 172 770 168 905 148 b 682 638 1244 220 1103 568 b 543 663 655 643 543 663 b 699 467 543 663 677 605 b 415 300 734 250 430 298 b 439 589 762 310 536 511 b 1 972 316 687 131 798 b 738 699 1 972 203 764 b 1585 475 1371 621 1585 475 b 1196 432 1585 475 1251 580 "},"E":{"ha":1125,"x_min":0,"x_max":0,"o":"m 1206 347 b 1638 95 1206 347 1344 186 b 2186 14 1787 48 1972 21 b 157 418 2186 14 558 -115 b 553 356 157 418 482 208 b 1 972 645 549 235 659 b 738 699 1 972 203 764 b 1585 475 1371 621 1585 475 b 1370 511 1585 475 1474 505 b 1124 377 1148 525 1124 377 b 682 638 1124 377 930 693 b 621 497 606 622 585 562 b 877 353 672 406 772 354 b 1055 373 970 352 1055 373 b 678 277 1055 373 961 219 b 1206 347 1210 -77 1206 347 "},"F":{"ha":1125,"x_min":0,"x_max":0,"o":"m 1585 475 b 1349 511 1585 475 1459 511 b 1117 395 1192 511 1117 395 b 750 626 1117 395 1112 548 b 597 591 633 651 599 618 b 690 453 593 553 637 495 b 1091 332 859 320 972 317 b 731 325 1013 265 824 297 b 838 195 766 272 805 226 b 1106 37 938 101 1070 55 b 157 418 714 86 326 193 b 553 356 157 418 482 208 b 538 491 576 405 567 448 b 537 491 537 491 537 491 b 122 838 468 591 283 687 b 120 841 121 839 121 840 b 98 861 113 847 106 854 b 94 865 97 863 96 864 b 49 913 79 881 64 897 b 44 920 47 916 46 918 b 28 939 38 926 33 932 b 22 946 26 941 24 944 b 1 972 15 955 8 963 b 2 972 1 972 2 972 b 2 971 2 972 2 971 b 3 970 2 971 3 971 b 4 970 4 970 4 970 b 7 967 5 969 6 968 b 8 966 7 967 7 966 b 10 964 9 965 9 965 b 12 962 11 963 12 963 b 15 960 13 961 14 961 b 19 957 16 959 17 958 b 22 953 20 956 21 955 b 26 950 24 952 25 951 b 29 948 27 950 28 949 b 34 944 31 947 32 946 b 37 942 35 944 36 943 b 48 934 40 940 44 937 b 50 932 49 933 49 933 b 57 927 52 931 54 929 b 60 925 58 927 59 926 b 67 920 62 924 65 922 b 68 920 68 920 68 920 b 87 907 74 916 80 911 b 89 906 88 907 88 906 b 99 899 92 904 96 902 b 102 898 100 899 101 898 b 138 877 113 891 125 884 b 141 875 139 876 140 876 b 154 868 145 873 150 870 b 156 867 155 867 156 867 b 203 844 171 859 186 851 b 206 842 204 843 205 843 b 262 817 224 834 242 826 b 262 817 262 817 262 817 b 281 810 268 815 275 812 b 285 808 282 809 284 809 b 348 785 305 800 326 793 b 352 784 349 785 351 784 b 374 777 359 781 366 779 b 738 699 472 745 593 717 b 1585 475 1371 621 1585 475 "},"G":{"ha":1125,"x_min":0,"x_max":0,"o":"m 1638 95 b 1797 55 1687 80 1740 66 b 2186 14 1912 32 2043 18 b 157 418 2186 14 558 -115 b 553 356 157 418 482 208 b 1 972 645 549 235 659 b 738 699 1 972 203 764 b 1585 475 1371 621 1585 475 b 1370 511 1585 475 1474 505 b 1124 377 1148 525 1124 377 b 682 638 1124 377 943 681 b 605 596 663 635 623 627 b 807 234 558 515 675 327 b 1186 126 868 191 1096 60 b 763 395 1311 217 763 395 b 1230 314 763 395 965 372 b 1638 95 1429 269 1554 194 "},"H":{"ha":1125,"x_min":0,"x_max":0,"o":"m 1196 432 b 2186 14 1141 285 1524 36 b 1493 10 2186 14 1911 -15 b 1020 129 1247 25 1020 129 b 1071 379 1020 129 1366 80 b 1071 379 1071 379 1071 379 b 752 334 1008 324 904 276 b 752 334 752 334 752 334 b 838 195 759 280 798 231 b 1106 37 939 103 1070 55 b 157 418 714 86 326 193 b 553 356 157 418 482 208 b 1 972 645 549 235 659 b 375 776 1 972 109 861 b 757 618 436 757 721 668 b 733 626 757 618 733 627 b 682 638 716 631 699 635 b 623 561 628 647 612 614 b 768 394 639 485 695 418 b 961 541 961 332 1004 464 b 631 758 882 682 631 758 b 1193 618 631 758 1074 647 b 1585 475 1478 548 1585 475 b 1196 432 1585 475 1251 580 "},"I":{"ha":1125,"x_min":0,"x_max":0,"o":"m 1215 132 b 1401 187 1326 126 1393 186 b 2186 14 1571 99 1840 25 b 157 418 2186 14 558 -115 b 507 243 157 418 260 304 b 780 429 601 220 798 252 b 512 634 767 564 644 663 b 463 569 470 625 443 606 b 1 972 342 671 140 786 b 738 699 1 972 203 764 b 1585 475 1371 621 1585 475 b 1189 411 1585 475 1257 572 b 1005 596 1189 410 1209 627 b 875 421 952 588 874 512 b 1215 132 878 278 1053 140 "},"J":{"ha":1125,"x_min":0,"x_max":0,"o":"m 1196 432 b 2186 14 1141 285 1524 36 b 157 418 2186 14 558 -115 b 432 305 157 418 312 315 b 557 441 553 295 557 441 b 762 234 557 441 652 323 b 1138 105 901 122 1056 82 b 1068 366 1221 127 1126 293 b 682 638 957 508 830 614 b 617 473 593 653 581 543 b 223 752 605 475 362 636 b 1 972 146 815 66 885 b 738 699 1 972 203 764 b 1585 475 1371 621 1585 475 b 1196 432 1585 475 1251 580 "},"K":{"ha":1125,"x_min":0,"x_max":0,"o":"m 1540 121 b 1844 48 1626 89 1730 68 b 2186 14 1947 30 2062 18 b 1493 10 2186 14 1911 -15 b 1020 129 1247 25 1020 129 b 1187 212 1020 129 1204 100 b 839 345 1171 323 960 344 b 734 318 799 335 763 326 b 838 195 762 277 796 234 b 1106 37 937 101 1070 55 b 157 418 714 86 326 193 b 553 356 157 418 482 208 b 1 972 645 549 235 659 b 375 776 1 972 109 861 b 757 618 436 757 721 668 b 733 626 757 618 733 627 b 682 638 716 631 699 635 b 623 561 628 647 612 614 b 715 347 629 532 656 444 b 961 541 814 391 993 480 b 631 758 887 684 631 758 b 1193 618 631 758 1074 647 b 1585 475 1478 548 1585 475 b 1196 432 1585 475 1251 580 b 929 367 1122 414 1022 390 l 1309 326 l 1311 326 b 1403 199 1311 326 1337 257 b 1410 192 1405 196 1408 194 b 1419 185 1413 190 1416 188 b 1455 161 1430 177 1442 168 b 1540 121 1480 146 1509 133 b 1540 121 1540 121 1540 121 "},"L":{"ha":1125,"x_min":0,"x_max":0,"o":"m 1206 347 b 1638 95 1206 347 1344 186 b 2186 14 1787 48 1972 21 b 157 418 2186 14 558 -115 b 553 356 157 418 482 208 b 1 972 645 549 235 659 b 738 699 1 972 203 764 b 751 697 742 698 747 698 b 605 596 751 697 637 695 b 807 234 576 507 675 327 b 1186 126 868 191 1094 65 b 1206 347 1256 172 1206 347 "},"M":{"ha":1125,"x_min":0,"x_max":0,"o":"m 1196 432 b 2186 14 1141 285 1524 36 b 1493 10 2186 14 1911 -15 b 1020 129 1247 25 1020 129 b 1169 150 1020 129 1122 116 b 1021 508 1224 190 1147 390 b 921 320 1048 400 921 320 b 623 561 853 506 704 552 b 838 195 637 450 755 272 b 1106 37 938 101 1070 55 b 157 418 714 86 326 193 b 553 356 157 418 482 208 b 1 972 645 549 235 659 b 375 776 1 972 109 862 b 696 634 541 723 596 696 b 941 379 920 495 941 379 b 849 654 976 485 964 577 b 631 758 773 705 631 758 b 1193 618 631 758 1074 647 b 1585 475 1478 548 1585 475 b 1196 432 1585 475 1251 580 "},"N":{"ha":1125,"x_min":0,"x_max":0,"o":"m 1196 432 b 2186 14 1141 285 1524 36 b 1493 10 2186 14 1911 -15 b 1020 129 1247 25 1020 129 b 965 358 1020 129 1204 198 b 642 499 965 358 808 459 b 838 195 642 499 627 379 b 1106 37 941 105 1070 55 b 157 418 714 86 326 193 b 553 356 157 418 482 208 b 1 972 645 549 235 659 b 315 797 1 972 93 878 b 375 776 334 790 354 783 b 1185 175 882 602 1139 313 b 849 654 1209 260 1093 489 b 631 758 773 706 631 758 b 1193 618 631 758 1074 647 b 1585 475 1479 548 1585 475 b 1196 432 1585 475 1251 580 "},"O":{"ha":1125,"x_min":0,"x_max":0,"o":"m 1196 432 b 2186 14 1141 285 1524 36 b 157 418 2186 14 558 -115 b 553 356 157 418 482 208 b 1 972 645 549 235 659 b 738 699 1 972 203 764 b 1585 475 1371 621 1585 475 b 1196 432 1585 475 1251 580 m 1044 147 b 1068 366 1301 12 1180 224 b 682 638 957 508 830 614 b 1044 147 449 677 745 304 "},"P":{"ha":1125,"x_min":0,"x_max":0,"o":"m 1349 511 b 1222 397 1298 511 1241 465 b 848 299 1176 228 928 254 b 664 438 796 328 728 382 b 838 195 710 345 782 247 b 1106 37 938 101 1070 55 b 157 418 714 86 326 193 b 553 356 157 418 482 208 b 538 491 576 405 567 448 b 537 491 537 491 537 491 b 122 838 468 591 283 687 b 120 841 121 839 121 840 b 98 861 113 847 106 854 b 94 865 97 863 96 864 b 49 913 79 881 64 897 b 44 920 47 916 46 918 b 28 939 38 926 33 932 b 22 946 26 941 24 944 b 1 972 15 955 8 963 b 2 972 1 972 2 972 b 2 971 2 972 2 971 b 3 970 2 971 3 971 b 4 970 3 970 4 970 b 7 967 5 969 6 968 b 8 966 7 967 7 966 b 10 964 9 965 9 965 b 12 962 11 963 12 963 b 15 960 13 961 14 961 b 19 957 16 959 17 958 b 22 953 20 956 21 955 b 26 950 24 952 25 951 b 29 948 27 950 28 949 b 34 944 31 947 32 946 b 36 942 35 944 36 943 b 48 934 40 940 44 937 b 50 932 49 933 49 933 b 57 927 52 931 54 929 b 60 925 58 927 59 926 b 67 920 62 924 65 922 b 68 920 68 920 68 920 b 87 907 74 916 80 911 b 89 906 88 907 88 906 b 99 899 92 904 96 902 b 102 898 100 899 101 898 b 138 877 113 891 125 884 b 141 875 139 876 140 876 b 154 868 145 873 150 870 b 156 867 155 867 156 867 b 203 844 171 859 186 851 b 206 842 204 843 205 843 b 262 817 224 834 242 826 b 262 817 262 817 262 817 b 281 810 268 815 275 812 b 285 808 282 809 284 809 b 348 785 305 800 326 793 b 352 784 349 785 351 784 b 374 777 359 781 366 779 b 738 699 472 745 593 717 b 1585 475 1371 621 1585 475 b 1349 511 1585 475 1459 512 m 1021 358 b 937 507 1052 399 973 476 b 756 619 881 557 820 595 b 742 623 754 619 748 621 b 724 629 736 625 730 627 b 712 632 720 630 716 631 b 682 638 702 634 692 637 b 623 561 628 647 616 615 b 641 493 625 540 632 517 b 765 413 681 466 723 438 b 1021 358 888 338 1001 332 "},"Q":{"ha":1125,"x_min":0,"x_max":0,"o":"m 1252 248 b 1474 153 1363 201 1454 161 b 2186 14 1644 80 1886 24 b 1772 0 2186 14 2015 0 b 1209 -219 1395 0 1230 -192 b 1285 158 1231 -189 1393 33 b 1261 77 1289 131 1284 103 b 1058 44 1210 21 1099 38 b 157 418 683 95 319 202 b 553 356 157 418 482 208 b 1 972 645 549 235 659 b 738 699 1 972 203 764 b 1585 475 1371 621 1585 475 b 1196 432 1585 475 1236 585 b 1252 248 1186 395 1216 333 m 1044 147 b 1154 243 1231 49 1218 134 b 769 448 991 332 796 433 b 1111 309 807 437 958 374 b 1068 366 1097 329 1083 348 b 682 638 957 508 830 614 b 1044 147 449 677 745 304 "},"R":{"ha":1125,"x_min":0,"x_max":0,"o":"m 1377 233 b 1529 131 1428 182 1471 152 b 2186 14 1695 69 1917 23 b 1493 10 2186 14 1911 -15 b 1020 129 1247 25 1020 129 b 1169 150 1020 129 1165 92 b 862 292 1172 194 1011 213 b 848 299 857 295 852 297 b 801 329 833 307 818 317 b 785 340 796 332 791 336 b 783 341 785 341 784 341 b 783 342 783 341 783 341 l 783 342 b 664 438 745 369 704 403 b 680 407 669 428 675 418 b 685 399 682 405 683 402 b 692 386 687 395 690 390 b 697 379 694 384 695 381 b 710 356 701 371 705 364 b 716 347 712 353 714 350 b 724 335 719 343 721 339 b 734 321 727 330 730 325 b 742 309 736 317 739 313 b 750 297 745 305 748 301 b 757 288 753 294 755 291 b 770 270 761 282 766 276 b 774 265 772 268 773 267 b 786 251 778 260 782 256 b 791 245 787 249 789 247 b 805 229 795 239 800 234 b 807 227 806 228 806 227 b 820 213 811 222 815 217 b 824 209 821 211 822 210 b 838 195 828 204 833 199 b 1106 37 938 101 1070 55 b 157 418 714 86 326 193 b 553 356 157 418 482 208 b 560 374 556 362 558 368 b 560 374 560 374 560 374 b 564 391 562 380 563 385 b 565 392 564 391 565 391 b 566 408 566 397 566 402 b 566 409 566 408 566 408 b 565 424 566 414 566 419 b 565 426 565 425 565 425 b 562 440 565 431 564 435 b 562 442 562 441 562 442 b 557 456 560 447 559 451 b 556 459 557 457 556 458 b 550 472 554 463 552 467 b 548 475 549 473 548 474 b 540 487 545 479 543 483 b 538 491 539 489 538 490 b 537 491 537 491 537 491 b 229 747 483 569 358 645 b 223 752 227 748 225 750 b 205 766 217 756 211 761 b 192 776 201 770 197 773 b 178 789 188 780 183 785 b 161 803 172 793 167 798 b 150 813 157 807 154 810 b 122 838 141 821 131 830 b 122 838 122 838 122 838 b 122 838 122 838 122 838 b 120 840 121 839 121 840 l 120 841 b 98 861 113 847 106 854 b 1 972 64 895 31 932 b 2 972 1 972 2 972 b 2 971 2 972 2 971 b 3 970 2 971 3 971 b 4 970 3 970 4 970 b 7 967 5 969 6 968 b 7 967 7 967 7 967 b 8 966 7 967 8 966 b 10 964 9 965 9 965 b 12 963 11 964 11 963 b 12 962 12 962 12 962 b 15 960 13 961 14 961 b 15 960 15 960 15 960 b 19 957 16 959 17 958 b 22 953 20 956 21 955 b 26 950 24 952 25 951 b 29 948 27 950 28 949 b 34 944 31 947 32 946 b 37 942 35 944 36 943 b 48 934 40 940 44 937 b 50 932 49 933 49 933 b 57 927 52 931 54 929 b 60 925 58 927 59 926 b 67 920 62 924 65 922 b 68 920 68 920 68 920 b 87 907 74 916 80 911 b 87 907 87 907 87 907 b 89 906 88 907 88 906 b 99 899 92 904 96 902 b 102 898 100 899 101 898 b 102 898 102 898 102 898 b 118 888 107 895 112 891 b 121 887 119 888 120 887 b 138 877 126 883 132 880 b 138 876 138 877 138 876 b 141 875 139 876 140 876 b 154 868 145 873 150 870 b 156 867 155 867 156 867 b 177 856 163 863 170 860 b 181 854 178 856 179 855 b 203 844 188 851 195 847 b 203 844 203 844 203 844 b 206 842 204 843 205 843 b 206 842 206 842 206 842 b 230 831 214 838 222 835 b 236 829 232 830 234 829 b 262 817 244 825 253 821 b 262 817 262 817 262 817 b 273 813 266 816 269 814 b 281 810 276 812 278 811 b 285 808 282 809 284 809 b 313 797 294 804 304 801 b 318 796 315 797 317 796 b 348 785 328 792 338 789 b 352 784 349 785 351 784 b 374 777 359 781 366 779 b 738 699 472 745 593 717 b 1585 475 1371 621 1585 475 b 1349 511 1585 475 1459 512 b 1222 397 1298 511 1241 465 b 1024 266 1197 304 1110 270 b 1377 233 1165 228 1325 196 m 765 413 b 1021 358 888 338 1001 332 b 937 507 1051 399 973 476 b 756 619 881 557 820 595 b 754 619 755 619 755 619 b 754 619 754 619 754 619 b 750 620 753 620 752 620 b 750 621 750 620 750 620 b 747 622 749 621 748 621 b 742 623 745 622 744 623 b 724 629 736 625 730 627 b 712 632 720 630 716 631 b 702 634 709 633 705 634 b 682 638 695 636 689 637 b 623 561 628 647 616 615 b 626 542 624 555 625 548 b 628 536 627 540 627 538 b 632 520 629 531 630 526 b 633 514 632 518 633 516 b 641 493 636 507 638 500 l 641 493 b 765 413 681 466 723 438 "},"S":{"ha":1125,"x_min":0,"x_max":0,"o":"m 1638 95 b 1797 55 1687 80 1740 66 b 2186 14 1912 32 2043 18 b 157 418 2186 14 558 -115 b 553 356 157 418 482 208 b 561 379 557 364 559 371 b 972 136 569 375 606 225 b 1186 126 1073 112 1166 111 b 1154 226 1213 146 1207 191 b 544 481 1046 296 655 317 b 1 972 463 611 181 732 b 738 699 1 972 203 764 b 1585 475 1371 621 1585 475 b 1370 511 1585 475 1474 505 b 1124 377 1148 525 1124 377 b 682 638 1124 377 943 681 b 605 596 663 635 623 627 b 595 565 599 587 596 576 b 673 456 592 544 617 488 b 970 360 763 404 911 375 b 1230 314 1069 336 1161 329 b 1638 95 1429 269 1554 194 "},"T":{"ha":1125,"x_min":0,"x_max":0,"o":"m 891 272 b 1230 24 1028 118 1221 28 b 364 245 916 54 590 117 b 596 200 384 244 490 208 b 600 200 597 200 598 200 b 726 343 679 194 741 265 l 666 642 b 500 535 486 675 481 602 b 1 972 387 647 156 765 b 738 699 1 972 203 764 b 1585 475 1371 621 1585 475 b 1196 432 1585 475 1263 575 b 1192 346 1182 403 1192 346 b 738 625 1192 346 1015 547 b 891 272 738 557 793 384 "},"U":{"ha":1125,"x_min":0,"x_max":0,"o":"m 1951 32 b 2065 20 1988 27 2026 23 b 2186 14 2104 17 2144 15 b 1763 0 2186 14 2025 -3 b 157 418 1252 1 427 60 b 553 356 157 418 482 208 b 1 972 645 549 235 659 b 354 783 1 972 104 868 b 354 783 354 783 354 783 b 376 776 361 781 368 778 b 757 618 436 757 721 668 b 733 626 757 618 733 627 b 682 638 716 631 699 636 b 623 561 628 647 616 615 l 623 561 b 1094 131 707 118 1042 127 b 849 654 1235 142 1124 468 b 744 711 773 706 744 711 b 1193 618 744 711 1074 647 b 1585 476 1468 550 1577 481 b 1585 476 1585 476 1585 476 b 1585 475 1585 476 1585 475 b 1585 475 1585 475 1585 475 b 1428 508 1585 475 1512 498 b 1360 511 1406 510 1382 512 b 1196 432 1286 511 1218 492 b 1201 357 1187 409 1189 384 b 1234 308 1209 341 1220 324 b 1697 79 1306 225 1466 137 b 1793 57 1728 71 1760 64 b 1896 39 1826 51 1861 45 b 1951 32 1914 37 1932 34 "},"V":{"ha":1125,"x_min":0,"x_max":0,"o":"m 1951 32 b 2065 20 1988 27 2026 23 b 2186 14 2104 17 2144 15 b 1763 0 2186 14 2025 -3 b 157 418 1252 1 427 60 b 553 356 157 418 482 208 b 1 972 645 549 235 659 b 354 783 1 972 104 868 b 354 783 354 783 354 783 b 375 776 361 781 368 778 b 757 618 436 757 721 668 b 635 572 757 618 643 650 b 1118 101 614 358 1118 101 b 788 722 1229 360 967 572 l 613 869 b 1193 618 613 869 1074 647 b 1585 476 1468 550 1577 481 b 1585 476 1585 476 1585 476 b 1585 475 1585 476 1585 475 b 1585 475 1585 475 1585 475 b 1428 508 1585 475 1512 498 b 1360 511 1405 510 1382 512 b 1196 432 1286 511 1218 492 b 1201 357 1187 409 1189 384 b 1234 308 1209 341 1220 324 b 1697 79 1306 225 1466 137 b 1793 57 1728 71 1760 64 b 1896 39 1826 51 1861 45 b 1951 32 1914 37 1932 34 "},"W":{"ha":1125,"x_min":0,"x_max":0,"o":"m 1951 32 b 2065 20 1988 27 2026 23 b 2186 14 2104 17 2144 15 b 1763 0 2186 14 2025 -3 b 157 418 1252 1 427 60 b 553 356 157 418 482 208 b 1 972 645 549 235 659 b 354 783 1 972 104 868 b 354 783 354 783 354 783 b 375 776 361 781 368 778 b 757 618 436 757 721 668 b 635 572 757 618 665 645 b 806 213 612 515 705 216 b 844 498 918 211 844 498 b 1032 166 844 498 963 233 b 1160 230 1084 114 1165 142 b 849 654 1155 331 1051 517 b 631 758 773 706 631 758 b 1193 618 631 758 1074 647 b 1585 476 1468 550 1577 481 b 1585 476 1585 476 1585 476 b 1585 475 1585 476 1585 475 b 1585 475 1585 475 1585 475 b 1428 508 1585 475 1512 498 b 1360 511 1406 510 1382 512 b 1196 432 1286 511 1218 492 b 1201 357 1187 409 1189 384 b 1234 308 1209 341 1220 324 b 1697 79 1306 225 1466 137 b 1793 57 1728 71 1760 64 b 1896 39 1826 51 1861 45 b 1951 32 1914 37 1932 34 "},"X":{"ha":1125,"x_min":0,"x_max":0,"o":"m 1259 304 b 1470 154 1259 304 1278 236 b 2186 14 1641 81 1884 24 b 1493 10 2186 14 1911 -15 b 1020 129 1247 25 1020 129 b 1169 150 1020 129 1122 116 b 919 302 1178 157 1043 234 b 852 339 896 314 874 327 b 826 194 789 319 773 235 l 828 193 b 1106 37 935 109 1089 46 b 157 418 714 86 326 193 b 553 356 157 418 482 208 b 566 412 562 376 566 394 b 567 412 566 412 566 412 b 800 369 637 368 720 350 b 407 616 666 447 535 529 b 333 668 378 636 352 655 b 1 972 224 748 98 843 b 375 776 1 972 109 861 b 757 618 436 757 721 668 b 733 626 757 618 733 627 b 682 638 716 631 699 635 b 590 565 657 642 563 643 b 832 437 607 518 791 451 b 929 404 859 427 893 416 b 942 408 933 406 938 407 b 976 547 1003 426 1021 503 b 849 654 935 586 889 627 b 631 758 773 706 631 758 b 1193 618 631 758 1074 647 b 1585 475 1478 548 1585 475 b 1196 432 1585 475 1251 580 b 1002 381 1174 429 1097 408 b 1259 304 1130 342 1259 304 "},"Y":{"ha":1125,"x_min":0,"x_max":0,"o":"m 1951 32 b 2065 20 1988 27 2026 23 b 2186 14 2104 17 2144 15 b 1763 0 2186 14 2025 -3 b 157 418 1252 1 427 60 b 793 182 157 418 394 229 b 1118 365 1075 148 1251 168 b 898 261 1067 302 1000 269 b 483 377 669 242 493 374 b 546 477 553 398 564 447 b 1 972 469 609 182 730 b 354 783 1 972 104 868 b 354 783 354 783 354 783 b 376 776 361 781 368 778 b 757 618 436 757 721 668 b 733 626 757 618 733 627 b 682 638 716 631 699 635 b 623 561 628 647 616 615 l 623 561 b 657 476 627 530 636 499 b 929 326 697 431 831 321 b 932 326 930 326 931 326 b 1009 514 1025 331 1071 444 b 849 654 962 566 907 615 b 744 711 773 706 744 711 b 1193 618 744 711 1074 647 b 1585 476 1468 550 1577 481 b 1585 476 1585 476 1585 476 b 1585 475 1585 476 1585 475 b 1585 475 1585 475 1585 475 b 1428 508 1585 475 1512 498 b 1360 511 1406 510 1382 512 b 1196 432 1286 511 1218 492 b 1201 357 1187 409 1189 384 b 1234 308 1209 341 1220 324 b 1697 79 1306 225 1466 137 b 1793 57 1728 71 1760 64 b 1896 39 1826 51 1861 45 b 1951 32 1914 37 1932 34 "},"Z":{"ha":1125,"x_min":0,"x_max":0,"o":"m 1244 297 b 2186 14 1368 167 1702 30 b 157 418 2186 14 558 -115 b 553 356 157 418 482 208 b 565 394 559 369 563 382 b 790 368 569 393 683 361 b 1019 426 909 375 1022 421 b 682 638 919 537 808 617 b 555 461 551 660 537 591 b 1 972 493 599 190 719 b 738 699 1 972 203 764 b 1585 475 1371 621 1585 475 b 1196 432 1585 475 1251 580 b 1200 362 1188 411 1189 387 b 1199 362 1199 362 1199 362 b 755 302 1175 364 937 324 b 1034 140 792 268 920 159 b 1244 297 1240 105 1241 259 "}," ":{"ha":1126,"x_min":0,"x_max":0,"o":""},"­":{"ha":0,"x_min":0,"x_max":0,"o":""}}}
